<?xml version="1.0" encoding="UTF-8"?>
<svg width="12px" height="10px" viewBox="0 0 12 10" version="1.1" xmlns="http://www.w3.org/2000/svg" xmlns:xlink="http://www.w3.org/1999/xlink">
    <!-- Generator: Sketch 50.2 (55047) - http://www.bohemiancoding.com/sketch -->
    <title>arrow</title>
    <desc>Created with Sketch.</desc>
    <defs></defs>
    <g id="Page-1" stroke="none" stroke-width="1" fill="none" fill-rule="evenodd">
        <g id="arrow" fill="#000000" fill-rule="nonzero">
            <path d="M11.5432772,5.27371569 L7.70066221,9.13176289 C7.5772047,9.2552204 7.42288281,9.31694915 7.26856093,9.31694915 C7.11423904,9.31694915 6.95991715,9.2552204 6.83645964,9.13176289 C6.58954462,8.88484787 6.58954462,8.49904315 6.83645964,8.25212813 L9.62968581,5.45890195 L0.617287552,5.45890195 C0.277779398,5.45890195 0,5.18112255 0,4.8416144 C0,4.50210625 0.277779398,4.22432685 0.617287552,4.22432685 L9.62968581,4.22432685 L6.82102745,1.41566849 C6.57411243,1.16875346 6.57411243,0.782948744 6.82102745,0.536033723 C7.06794247,0.289118702 7.45374719,0.289118702 7.70066221,0.536033723 L11.5432772,4.39408092 C11.7901922,4.64099595 11.7901922,5.04223285 11.5432772,5.27371569 Z" id="XMLID_512_"></path>
        </g>
    </g>
</svg>