<?xml version="1.0" standalone="no"?>
<!DOCTYPE svg PUBLIC "-//W3C//DTD SVG 20010904//EN"
 "http://www.w3.org/TR/2001/REC-SVG-20010904/DTD/svg10.dtd">
<svg version="1.0" xmlns="http://www.w3.org/2000/svg"
 width="260.000000pt" height="260.000000pt" viewBox="0 0 260.000000 260.000000"
 preserveAspectRatio="xMidYMid meet">
<metadata>
Created by potrace 1.11, written by Peter Selinger 2001-2013
</metadata>
<g transform="translate(0.000000,260.000000) scale(0.100000,-0.100000)"
fill="#000000" stroke="none">
<path d="M1161 2095 c-259 -49 -475 -215 -587 -450 -60 -127 -78 -205 -78
-350 0 -145 18 -223 78 -350 103 -217 308 -384 541 -442 94 -23 285 -23 380 0
98 24 258 106 332 170 128 110 230 274 270 432 23 94 23 286 0 380 -41 165
-151 336 -283 443 -79 64 -221 134 -314 157 -94 22 -250 27 -339 10z"/>
</g>
</svg>
